<svg width="180" height="180" viewBox="0 0 180 180" fill="none" xmlns="http://www.w3.org/2000/svg">
  <style>
    @media (prefers-color-scheme: light) {
      .background { fill: white; }
      .foreground { fill: black; }
    }
    @media (prefers-color-scheme: dark) {
      .background { fill: black; }
      .foreground { fill: white; }
    }
  </style>
  <!-- Updated to Zuetech running person logo -->
  <rect class="background" width="180" height="180" rx="37" />
  <g transform="translate(30, 30) scale(5)">
    <circle cx="5.5" cy="2.5" r="2.5" class="foreground"/>
    <path d="M0.5,6 C0.5,6 2.5,7 4.5,7 L8.5,7 C9.33,7 10,7.67 10,8.5 C10,9.33 9.33,10 8.5,10 L6,10 L6,13 L7,13 C7.55,13 8,13.45 8,14 L9,19 C9.13,19.54 8.81,20.08 8.27,20.21 C7.73,20.34 7.19,20.02 7.06,19.48 L6.19,16 L4,16 L4,10 L2.5,10 L2.5,13.5 L0.19,9.09 C-0.03,8.7 -0.06,8.23 0.11,7.82 C0.34,7.22 0.88,6.77 1.5,6.5 Z" class="foreground"/>
    <rect x="14" y="6" width="6" height="1.5" rx="0.75" class="foreground"/>
    <rect x="14" y="10" width="6" height="1.5" rx="0.75" class="foreground"/>
    <rect x="14" y="14" width="6" height="1.5" rx="0.75" class="foreground"/>
    <rect x="7" y="18" width="5" height="1.5" rx="0.75" class="foreground"/>
    <rect x="14" y="18" width="6" height="1.5" rx="0.75" class="foreground"/>
    <rect x="0" y="18" width="5" height="1.5" rx="0.75" class="foreground"/>
    <path d="M19,1 L23,3.5 L23,8 C23,8.55 22.55,9 22,9 C21.45,9 21,8.55 21,8 L21,5 L19,3.5 C18.6,3.2 18.5,2.6 18.8,2.2 C19.1,1.8 19.7,1.7 20.1,2 Z" class="foreground"/>
  </g>
</svg>
